<svg width="114" height="40" viewBox="0 0 114 40" fill="none" xmlns="http://www.w3.org/2000/svg">
<rect width="114" height="40" rx="2" fill="#CC0000"/>
<path d="M20.5391 21.2402L21.6113 21.1465C21.6621 21.5762 21.7793 21.9297 21.9629 22.207C22.1504 22.4805 22.4395 22.7031 22.8301 22.875C23.2207 23.043 23.6602 23.127 24.1484 23.127C24.582 23.127 24.9648 23.0625 25.2969 22.9336C25.6289 22.8047 25.875 22.6289 26.0352 22.4062C26.1992 22.1797 26.2812 21.9336 26.2812 21.668C26.2812 21.3984 26.2031 21.1641 26.0469 20.9648C25.8906 20.7617 25.6328 20.5918 25.2734 20.4551C25.043 20.3652 24.5332 20.2266 23.7441 20.0391C22.9551 19.8477 22.4023 19.668 22.0859 19.5C21.6758 19.2852 21.3691 19.0195 21.166 18.7031C20.9668 18.3828 20.8672 18.0254 20.8672 17.6309C20.8672 17.1973 20.9902 16.793 21.2363 16.418C21.4824 16.0391 21.8418 15.752 22.3145 15.5566C22.7871 15.3613 23.3125 15.2637 23.8906 15.2637C24.5273 15.2637 25.0879 15.3672 25.5723 15.5742C26.0605 15.7773 26.4355 16.0781 26.6973 16.4766C26.959 16.875 27.0996 17.3262 27.1191 17.8301L26.0293 17.9121C25.9707 17.3691 25.7715 16.959 25.4316 16.6816C25.0957 16.4043 24.5977 16.2656 23.9375 16.2656C23.25 16.2656 22.748 16.3926 22.4316 16.6465C22.1191 16.8965 21.9629 17.1992 21.9629 17.5547C21.9629 17.8633 22.0742 18.1172 22.2969 18.3164C22.5156 18.5156 23.0859 18.7207 24.0078 18.9316C24.9336 19.1387 25.5684 19.3203 25.9121 19.4766C26.4121 19.707 26.7812 20 27.0195 20.3555C27.2578 20.707 27.377 21.1133 27.377 21.5742C27.377 22.0312 27.2461 22.4629 26.9844 22.8691C26.7227 23.2715 26.3457 23.5859 25.8535 23.8125C25.3652 24.0352 24.8145 24.1465 24.2012 24.1465C23.4238 24.1465 22.7715 24.0332 22.2441 23.8066C21.7207 23.5801 21.3086 23.2402 21.0078 22.7871C20.7109 22.3301 20.5547 21.8145 20.5391 21.2402ZM33.0547 21.9961L34.1445 22.1309C33.9727 22.7676 33.6543 23.2617 33.1895 23.6133C32.7246 23.9648 32.1309 24.1406 31.4082 24.1406C30.498 24.1406 29.7754 23.8613 29.2402 23.3027C28.709 22.7402 28.4434 21.9531 28.4434 20.9414C28.4434 19.8945 28.7129 19.082 29.252 18.5039C29.791 17.9258 30.4902 17.6367 31.3496 17.6367C32.1816 17.6367 32.8613 17.9199 33.3887 18.4863C33.916 19.0527 34.1797 19.8496 34.1797 20.877C34.1797 20.9395 34.1777 21.0332 34.1738 21.1582H29.5332C29.5723 21.8418 29.7656 22.3652 30.1133 22.7285C30.4609 23.0918 30.8945 23.2734 31.4141 23.2734C31.8008 23.2734 32.1309 23.1719 32.4043 22.9688C32.6777 22.7656 32.8945 22.4414 33.0547 21.9961ZM29.5918 20.291H33.0664C33.0195 19.7676 32.8867 19.375 32.668 19.1133C32.332 18.707 31.8965 18.5039 31.3613 18.5039C30.877 18.5039 30.4688 18.666 30.1367 18.9902C29.8086 19.3145 29.627 19.748 29.5918 20.291ZM35.4512 24V15.4102H36.5059V24H35.4512ZM42.4062 21.9961L43.4961 22.1309C43.3242 22.7676 43.0059 23.2617 42.541 23.6133C42.0762 23.9648 41.4824 24.1406 40.7598 24.1406C39.8496 24.1406 39.127 23.8613 38.5918 23.3027C38.0605 22.7402 37.7949 21.9531 37.7949 20.9414C37.7949 19.8945 38.0645 19.082 38.6035 18.5039C39.1426 17.9258 39.8418 17.6367 40.7012 17.6367C41.5332 17.6367 42.2129 17.9199 42.7402 18.4863C43.2676 19.0527 43.5312 19.8496 43.5312 20.877C43.5312 20.9395 43.5293 21.0332 43.5254 21.1582H38.8848C38.9238 21.8418 39.1172 22.3652 39.4648 22.7285C39.8125 23.0918 40.2461 23.2734 40.7656 23.2734C41.1523 23.2734 41.4824 23.1719 41.7559 22.9688C42.0293 22.7656 42.2461 22.4414 42.4062 21.9961ZM38.9434 20.291H42.418C42.3711 19.7676 42.2383 19.375 42.0195 19.1133C41.6836 18.707 41.248 18.5039 40.7129 18.5039C40.2285 18.5039 39.8203 18.666 39.4883 18.9902C39.1602 19.3145 38.9785 19.748 38.9434 20.291ZM48.8867 21.7207L49.9238 21.8555C49.8105 22.5703 49.5195 23.1309 49.0508 23.5371C48.5859 23.9395 48.0137 24.1406 47.334 24.1406C46.4824 24.1406 45.7969 23.8633 45.2773 23.3086C44.7617 22.75 44.5039 21.9512 44.5039 20.9121C44.5039 20.2402 44.6152 19.6523 44.8379 19.1484C45.0605 18.6445 45.3984 18.2676 45.8516 18.0176C46.3086 17.7637 46.8047 17.6367 47.3398 17.6367C48.0156 17.6367 48.5684 17.8086 48.998 18.1523C49.4277 18.4922 49.7031 18.9766 49.8242 19.6055L48.7988 19.7637C48.7012 19.3457 48.5273 19.0312 48.2773 18.8203C48.0312 18.6094 47.7324 18.5039 47.3809 18.5039C46.8496 18.5039 46.418 18.6953 46.0859 19.0781C45.7539 19.457 45.5879 20.0586 45.5879 20.8828C45.5879 21.7188 45.748 22.3262 46.0684 22.7051C46.3887 23.084 46.8066 23.2734 47.3223 23.2734C47.7363 23.2734 48.082 23.1465 48.3594 22.8926C48.6367 22.6387 48.8125 22.248 48.8867 21.7207ZM53.1289 23.0566L53.2812 23.9883C52.9844 24.0508 52.7188 24.082 52.4844 24.082C52.1016 24.082 51.8047 24.0215 51.5938 23.9004C51.3828 23.7793 51.2344 23.6211 51.1484 23.4258C51.0625 23.2266 51.0195 22.8105 51.0195 22.1777V18.5977H50.2461V17.7773H51.0195V16.2363L52.0684 15.6035V17.7773H53.1289V18.5977H52.0684V22.2363C52.0684 22.5371 52.0859 22.7305 52.1211 22.8164C52.1602 22.9023 52.2207 22.9707 52.3027 23.0215C52.3887 23.0723 52.5098 23.0977 52.666 23.0977C52.7832 23.0977 52.9375 23.084 53.1289 23.0566ZM57.6406 24V15.4102H60.5996C61.2676 15.4102 61.7773 15.4512 62.1289 15.5332C62.6211 15.6465 63.041 15.8516 63.3887 16.1484C63.8418 16.5312 64.1797 17.0215 64.4023 17.6191C64.6289 18.2129 64.7422 18.8926 64.7422 19.6582C64.7422 20.3105 64.666 20.8887 64.5137 21.3926C64.3613 21.8965 64.166 22.3145 63.9277 22.6465C63.6895 22.9746 63.4277 23.2344 63.1426 23.4258C62.8613 23.6133 62.5195 23.7559 62.1172 23.8535C61.7188 23.9512 61.2598 24 60.7402 24H57.6406ZM58.7773 22.9863H60.6113C61.1777 22.9863 61.6211 22.9336 61.9414 22.8281C62.2656 22.7227 62.5234 22.5742 62.7148 22.3828C62.9844 22.1133 63.1934 21.752 63.3418 21.2988C63.4941 20.8418 63.5703 20.2891 63.5703 19.6406C63.5703 18.7422 63.4219 18.0527 63.125 17.5723C62.832 17.0879 62.4746 16.7637 62.0527 16.5996C61.748 16.4824 61.2578 16.4238 60.582 16.4238H58.7773V22.9863ZM70.4375 21.9961L71.5273 22.1309C71.3555 22.7676 71.0371 23.2617 70.5723 23.6133C70.1074 23.9648 69.5137 24.1406 68.791 24.1406C67.8809 24.1406 67.1582 23.8613 66.623 23.3027C66.0918 22.7402 65.8262 21.9531 65.8262 20.9414C65.8262 19.8945 66.0957 19.082 66.6348 18.5039C67.1738 17.9258 67.873 17.6367 68.7324 17.6367C69.5645 17.6367 70.2441 17.9199 70.7715 18.4863C71.2988 19.0527 71.5625 19.8496 71.5625 20.877C71.5625 20.9395 71.5605 21.0332 71.5566 21.1582H66.916C66.9551 21.8418 67.1484 22.3652 67.4961 22.7285C67.8438 23.0918 68.2773 23.2734 68.7969 23.2734C69.1836 23.2734 69.5137 23.1719 69.7871 22.9688C70.0605 22.7656 70.2773 22.4414 70.4375 21.9961ZM66.9746 20.291H70.4492C70.4023 19.7676 70.2695 19.375 70.0508 19.1133C69.7148 18.707 69.2793 18.5039 68.7441 18.5039C68.2598 18.5039 67.8516 18.666 67.5195 18.9902C67.1914 19.3145 67.0098 19.748 66.9746 20.291ZM74.5859 24L72.2188 17.7773H73.332L74.668 21.5039C74.8125 21.9062 74.9453 22.3242 75.0664 22.7578C75.1602 22.4297 75.291 22.0352 75.459 21.5742L76.8418 17.7773H77.9258L75.5703 24H74.5859ZM78.8633 16.623V15.4102H79.918V16.623H78.8633ZM78.8633 24V17.7773H79.918V24H78.8633ZM85.5898 21.7207L86.627 21.8555C86.5137 22.5703 86.2227 23.1309 85.7539 23.5371C85.2891 23.9395 84.7168 24.1406 84.0371 24.1406C83.1855 24.1406 82.5 23.8633 81.9805 23.3086C81.4648 22.75 81.207 21.9512 81.207 20.9121C81.207 20.2402 81.3184 19.6523 81.541 19.1484C81.7637 18.6445 82.1016 18.2676 82.5547 18.0176C83.0117 17.7637 83.5078 17.6367 84.043 17.6367C84.7188 17.6367 85.2715 17.8086 85.7012 18.1523C86.1309 18.4922 86.4062 18.9766 86.5273 19.6055L85.502 19.7637C85.4043 19.3457 85.2305 19.0312 84.9805 18.8203C84.7344 18.6094 84.4355 18.5039 84.084 18.5039C83.5527 18.5039 83.1211 18.6953 82.7891 19.0781C82.457 19.457 82.291 20.0586 82.291 20.8828C82.291 21.7188 82.4512 22.3262 82.7715 22.7051C83.0918 23.084 83.5098 23.2734 84.0254 23.2734C84.4395 23.2734 84.7852 23.1465 85.0625 22.8926C85.3398 22.6387 85.5156 22.248 85.5898 21.7207ZM91.7891 21.9961L92.8789 22.1309C92.707 22.7676 92.3887 23.2617 91.9238 23.6133C91.459 23.9648 90.8652 24.1406 90.1426 24.1406C89.2324 24.1406 88.5098 23.8613 87.9746 23.3027C87.4434 22.7402 87.1777 21.9531 87.1777 20.9414C87.1777 19.8945 87.4473 19.082 87.9863 18.5039C88.5254 17.9258 89.2246 17.6367 90.084 17.6367C90.916 17.6367 91.5957 17.9199 92.123 18.4863C92.6504 19.0527 92.9141 19.8496 92.9141 20.877C92.9141 20.9395 92.9121 21.0332 92.9082 21.1582H88.2676C88.3066 21.8418 88.5 22.3652 88.8477 22.7285C89.1953 23.0918 89.6289 23.2734 90.1484 23.2734C90.5352 23.2734 90.8652 23.1719 91.1387 22.9688C91.4121 22.7656 91.6289 22.4414 91.7891 21.9961ZM88.3262 20.291H91.8008C91.7539 19.7676 91.6211 19.375 91.4023 19.1133C91.0664 18.707 90.6309 18.5039 90.0957 18.5039C89.6113 18.5039 89.2031 18.666 88.8711 18.9902C88.543 19.3145 88.3613 19.748 88.3262 20.291Z" fill="white"/>
</svg>
