<svg width="94" height="40" viewBox="0 0 94 40" fill="none" xmlns="http://www.w3.org/2000/svg">
<rect width="94" height="40" rx="2" fill="#CC0000"/>
<path d="M20.924 21.36H20.42V21.924C20.42 22.752 20.888 24.144 22.868 24.144C24.224 24.144 25.352 23.28 25.352 21.756C25.352 20.496 24.716 19.956 23.612 19.572L22.34 19.128C21.596 18.876 21.08 18.42 21.08 17.472C21.08 16.14 21.956 15.696 22.916 15.696C24.128 15.696 24.656 16.464 24.656 17.616H25.16C25.16 16.188 24.452 15.288 22.868 15.288C21.524 15.288 20.576 16.14 20.576 17.52C20.576 18.684 21.188 19.236 22.316 19.62L23.288 19.956C24.248 20.292 24.848 20.676 24.848 21.792C24.848 22.884 24.056 23.736 22.868 23.736C21.632 23.736 20.924 22.896 20.924 21.804V21.36ZM26.7373 20.424C26.7373 19.608 26.9173 17.988 28.3093 17.988C29.6053 17.988 29.7853 19.284 29.7853 20.424H26.7373ZM30.2893 20.832C30.2893 18.804 29.8093 17.58 28.3333 17.58C26.9173 17.58 26.2333 18.768 26.2333 20.688C26.2333 22.824 26.6413 24.144 28.2613 24.144C29.6773 24.144 30.2053 22.908 30.2053 21.948H29.7493C29.7493 22.416 29.5333 23.736 28.2133 23.736C26.7493 23.736 26.7373 21.84 26.7373 20.832H30.2893ZM31.3241 24H31.7801V15.432H31.3241V24ZM33.4053 20.424C33.4053 19.608 33.5853 17.988 34.9773 17.988C36.2733 17.988 36.4533 19.284 36.4533 20.424H33.4053ZM36.9573 20.832C36.9573 18.804 36.4773 17.58 35.0013 17.58C33.5853 17.58 32.9013 18.768 32.9013 20.688C32.9013 22.824 33.3093 24.144 34.9293 24.144C36.3453 24.144 36.8733 22.908 36.8733 21.948H36.4173C36.4173 22.416 36.2013 23.736 34.8813 23.736C33.4173 23.736 33.4053 21.84 33.4053 20.832H36.9573ZM41.256 21.948C41.256 22.416 41.04 23.736 39.888 23.736C38.724 23.736 38.292 22.812 38.292 20.856C38.292 19.056 38.724 17.988 39.888 17.988C40.968 17.988 41.22 19.14 41.22 19.524H41.724C41.724 19.068 41.424 17.58 39.9 17.58C38.424 17.58 37.788 18.756 37.788 20.832C37.788 22.716 38.196 24.144 39.816 24.144C41.436 24.144 41.76 22.536 41.76 21.948H41.256ZM42.0921 18.132H42.9441V23.016C42.9441 23.7 43.2201 24.072 43.8681 24.072C44.0481 24.072 44.2881 24.048 44.5161 24V23.592C44.3121 23.652 44.1441 23.664 43.9521 23.664C43.6881 23.664 43.4001 23.568 43.4001 22.968V18.132H44.4441V17.724H43.4001V15.864H42.9441V17.724H42.0921V18.132ZM48.5641 23.592V15.84H50.0161C51.9841 15.84 52.5961 17.088 52.5961 19.716C52.5961 22.344 51.8401 23.592 50.0161 23.592H48.5641ZM48.0601 24H50.0161C51.6361 24 53.1001 23.232 53.1001 19.716C53.1001 16.2 51.8281 15.432 50.0161 15.432H48.0601V24ZM54.5108 20.424C54.5108 19.608 54.6908 17.988 56.0828 17.988C57.3788 17.988 57.5588 19.284 57.5588 20.424H54.5108ZM58.0628 20.832C58.0628 18.804 57.5828 17.58 56.1068 17.58C54.6908 17.58 54.0068 18.768 54.0068 20.688C54.0068 22.824 54.4148 24.144 56.0348 24.144C57.4508 24.144 57.9788 22.908 57.9788 21.948H57.5228C57.5228 22.416 57.3068 23.736 55.9868 23.736C54.5228 23.736 54.5108 21.84 54.5108 20.832H58.0628ZM60.8495 24L62.5535 17.724H62.0495L60.5975 23.424H60.5735L59.0495 17.724H58.5455L60.3095 24H60.8495ZM63.3163 24H63.7723V17.724H63.3163V24ZM63.3163 16.656H63.7723V15.432H63.3163V16.656ZM68.3615 21.948C68.3615 22.416 68.1455 23.736 66.9935 23.736C65.8295 23.736 65.3975 22.812 65.3975 20.856C65.3975 19.056 65.8295 17.988 66.9935 17.988C68.0735 17.988 68.3255 19.14 68.3255 19.524H68.8295C68.8295 19.068 68.5295 17.58 67.0055 17.58C65.5295 17.58 64.8935 18.756 64.8935 20.832C64.8935 22.716 65.3015 24.144 66.9215 24.144C68.5415 24.144 68.8655 22.536 68.8655 21.948H68.3615ZM70.0616 20.424C70.0616 19.608 70.2416 17.988 71.6336 17.988C72.9296 17.988 73.1096 19.284 73.1096 20.424H70.0616ZM73.6136 20.832C73.6136 18.804 73.1336 17.58 71.6576 17.58C70.2416 17.58 69.5576 18.768 69.5576 20.688C69.5576 22.824 69.9656 24.144 71.5856 24.144C73.0016 24.144 73.5296 22.908 73.5296 21.948H73.0736C73.0736 22.416 72.8576 23.736 71.5376 23.736C70.0736 23.736 70.0616 21.84 70.0616 20.832H73.6136Z" fill="white"/>
</svg>
